<svg width="1024" height="1024" viewBox="0 0 1024 1024" fill="none" xmlns="http://www.w3.org/2000/svg">
<g clip-path="url(#clip0_269_26)">
<rect width="1024" height="1024" fill="url(#paint0_linear_269_26)"/>
<path d="M100.967 212H71L230.825 812H260.793L100.967 212Z" fill="url(#paint1_linear_269_26)"/>
<path d="M923.825 212H953.793L793.967 812H764L923.825 212Z" fill="url(#paint2_linear_269_26)"/>
<path d="M293.586 760.551L438.718 212H465.862L306.978 812H279.833L121.311 212H148.455L293.586 760.551ZM360.904 812H334.122L493.006 212H519.427L360.904 812ZM414.831 812H388.049L546.571 212H573.354L414.831 812ZM627.642 212.725L698.217 456.203L763.001 212H790.146L631.261 812H604.117L533.18 568.884L469.119 812H441.975L600.497 212.725L600.136 212H627.642V212.725ZM685.188 812H658.405L817.29 212H843.71L685.188 812ZM743.217 796.471L736.804 812H712.332L870.854 212H897.637L743.217 796.471ZM546.933 517.797L617.146 762.725L630.899 710.913L560.324 466.71L546.933 517.797ZM311.683 627.58L299.377 679.029L175.6 212H202.382L311.683 627.58ZM573.715 415.623L644.29 659.826L658.043 608.739L587.468 364.174L573.715 415.623ZM338.827 527.218L325.436 577.218L229.526 212H255.946L338.827 527.218ZM600.497 314.174L671.435 558.377L684.826 506.928L614.612 262L600.497 314.174ZM365.971 423.231L352.218 473.956L283.091 212H310.235L365.971 423.231Z" fill="#F0E1FF"/>
</g>
<defs>
<linearGradient id="paint0_linear_269_26" x1="142.933" y1="83" x2="1116.06" y2="582.067" gradientUnits="userSpaceOnUse">
<stop stop-color="#0A0006"/>
<stop offset="1" stop-color="#110022"/>
</linearGradient>
<linearGradient id="paint1_linear_269_26" x1="165.896" y1="212" x2="165.896" y2="812" gradientUnits="userSpaceOnUse">
<stop stop-color="#BA7EF4"/>
<stop offset="1" stop-color="#F444AC"/>
</linearGradient>
<linearGradient id="paint2_linear_269_26" x1="858.896" y1="212" x2="858.896" y2="812" gradientUnits="userSpaceOnUse">
<stop stop-color="#BA7EF4"/>
<stop offset="1" stop-color="#F444AC"/>
</linearGradient>
<clipPath id="clip0_269_26">
<rect width="1024" height="1024" fill="white"/>
</clipPath>
</defs>
</svg>
