<svg width="476" height="124" viewBox="0 0 476 124" fill="none" xmlns="http://www.w3.org/2000/svg">
<path d="M323.218 0H328.602V124H323.218V0ZM312.45 0H317.834V124H312.45V0ZM301.682 0H307.066V124H301.682V0ZM290.914 0H296.298V124H290.914V0Z" fill="url(#paint0_linear_628_182)"/>
<path d="M213.341 87.6087L215.509 82.2174H233.905L236.073 87.6087H213.341ZM209.153 98.3913L211.247 93H238.092L240.41 98.3913H209.153ZM204.965 109.174L207.059 103.783H242.355L244.598 109.174H204.965ZM161.22 124H155.387L204.367 0H210.2L259.105 124H253.347L207.283 7.26329L161.22 124ZM207.956 20.0676L211.022 26.9565L172.736 124H166.978L207.956 20.0676ZM213.939 34.2947L216.78 41.7077L184.401 124H178.569L213.939 34.2947ZM219.622 49.1208L222.464 56.6836L195.917 124H190.159L219.622 49.1208ZM293.877 124H288.044L239.139 0H244.897L293.877 124ZM233.306 0L282.286 124H276.528L227.548 0H233.306ZM221.716 0L270.696 124H264.863L215.958 0H221.716Z" fill="url(#paint1_linear_628_182)"/>
<path d="M45.9905 113.367L75.9768 0H81.5852L48.7571 124H43.1487L10.3958 0H16.0042L45.9905 113.367ZM59.8987 124H54.3655L87.1936 0H92.6526L59.8987 124ZM71.0413 124H65.5071L98.261 0H103.794L71.0413 124ZM115.011 0.149414L129.593 50.4688L142.978 0H148.586L115.759 124H110.151L95.4934 73.7559L82.2581 124H76.6497L109.403 0.149414L109.327 0H115.011V0.149414ZM126.901 124H121.367L154.195 0H159.654L126.901 124ZM138.891 120.785L137.565 124H132.509L165.262 0H170.796L138.891 120.785ZM98.3352 63.1982L112.842 113.816L115.684 103.108L101.102 52.6396L98.3352 63.1982ZM49.7297 85.8867L47.1868 96.5195L21.6125 0H27.1458L49.7297 85.8867ZM103.869 42.082L118.45 92.5508L121.292 81.9932L106.71 31.4492L103.869 42.082ZM170.03 45.3662L154.46 83.0752L176.405 0H182.013L170.03 45.3662ZM55.3381 65.1445L52.5706 75.4785L32.7542 0H38.2131L55.3381 65.1445ZM109.403 21.1162L124.059 71.585L126.826 60.9521L112.319 10.333L109.403 21.1162ZM60.9465 43.6543L58.1047 54.1377L43.8215 0H49.4299L60.9465 43.6543Z" fill="#F0E1FF"/>
<path d="M6.19166 0H0L33.0222 124H39.2139L6.19166 0Z" fill="url(#paint2_linear_628_182)"/>
<path d="M469.563 0H475.605L427.27 121H421.228L469.563 0Z" fill="url(#paint3_linear_628_182)"/>
<path d="M383.809 121H378.118L338.656 21.0957V6.69434L380.964 113.912L425.913 0H431.531L383.809 121ZM395.047 121H389.428L437.15 0H442.841L395.047 121ZM406.357 121H400.738L448.533 0H454.152L406.357 121ZM417.667 121H412.048L459.77 0H465.462L417.667 121ZM384.612 94.6953L381.62 101.418L341.633 0H347.252L384.612 94.6953ZM390.231 80.3018L387.458 87.5352L352.943 0H358.634L390.231 80.3018ZM395.776 65.6875L393.004 73.0674L364.254 0H369.872L395.776 65.6875Z" fill="#F0E1FF"/>
<defs>
<linearGradient id="paint0_linear_628_182" x1="309.758" y1="0" x2="309.758" y2="124" gradientUnits="userSpaceOnUse">
<stop stop-color="#BA7EF4"/>
<stop offset="1" stop-color="#F444AC"/>
</linearGradient>
<linearGradient id="paint1_linear_628_182" x1="224.632" y1="0" x2="224.632" y2="124" gradientUnits="userSpaceOnUse">
<stop stop-color="#BA7EF4"/>
<stop offset="1" stop-color="#F444AC"/>
</linearGradient>
<linearGradient id="paint2_linear_628_182" x1="19.6069" y1="0" x2="19.6069" y2="124" gradientUnits="userSpaceOnUse">
<stop stop-color="#BA7EF4"/>
<stop offset="1" stop-color="#F444AC"/>
</linearGradient>
<linearGradient id="paint3_linear_628_182" x1="448.416" y1="0" x2="448.416" y2="121" gradientUnits="userSpaceOnUse">
<stop stop-color="#BA7EF4"/>
<stop offset="1" stop-color="#F444AC"/>
</linearGradient>
</defs>
</svg>
