<svg preserveAspectRatio="none" width="100%" height="100%" overflow="visible" style="display: block;" viewBox="0 0 127 32" fill="none" xmlns="http://www.w3.org/2000/svg">
<g id="WAIV Logo">
<path id="Subtract" d="M11.8717 29.2559L19.6119 0H21.0592L12.5855 32H11.1383L2.6832 0H4.13145L11.8717 29.2559ZM15.4615 32H14.0338L22.5074 0H23.9166L15.4615 32ZM18.3375 32H16.9098L25.3639 0H26.7926L18.3375 32ZM29.6881 0.0390625L33.4518 13.0244L36.9068 0H38.3551L29.8805 32H28.4332L24.65 19.0342L21.233 32H19.7857L28.2398 0.0390625L28.2213 0H29.6881V0.0390625ZM32.7564 32H31.3287L39.8023 0H41.2115L32.7564 32ZM35.8521 31.168L35.5094 32H34.2047L42.6588 0H44.0875L35.8521 31.168ZM25.3834 16.3096L29.1285 29.3721L29.8619 26.6084L26.0973 13.585L25.3834 16.3096ZM12.8365 22.1641L12.1803 24.9082L5.57871 0H7.00742L12.8365 22.1641ZM26.8121 10.8604L30.5758 23.8838L31.3092 21.1592L27.5455 8.11621L26.8121 10.8604ZM43.8883 11.71L39.8697 21.4414L45.5348 0H46.983L43.8883 11.71ZM14.2848 16.8115L13.5699 19.4785L8.45469 0H9.86387L14.2848 16.8115ZM28.2398 5.44922L32.023 18.4736L32.7379 15.7295L28.9928 2.66699L28.2398 5.44922ZM15.732 11.2656L14.9986 13.9707L11.3121 0H12.7594L15.732 11.2656Z" fill="var(--fill-0, #F0E1FF)"/>
<g id="Group 6">
<path id="Vector" d="M84.723 0H86.1128V32H84.723V0ZM81.9434 0H83.3332V32H81.9434V0ZM79.1638 0H80.5536V32H79.1638V0ZM76.3843 0H77.7741V32H76.3843V0Z" fill="url(#paint0_linear_0_40)"/>
<path id="Vector_2" d="M56.3603 22.6087L56.9201 21.2174H61.6685L62.2283 22.6087H56.3603ZM55.2793 25.3913L55.8198 24H62.7494L63.3478 25.3913H55.2793ZM54.1984 28.1739L54.7389 26.7826H63.8497L64.4288 28.1739H54.1984ZM42.9064 32H41.4008L54.044 0H55.5496L68.1735 32H66.6872L54.7968 1.8744L42.9064 32ZM54.9705 5.17874L55.7619 6.95652L45.879 32H44.3927L54.9705 5.17874ZM56.5147 8.85024L57.2482 10.7633L48.8902 32H47.3846L56.5147 8.85024ZM57.9817 12.6763L58.7152 14.628L51.8628 32H50.3765L57.9817 12.6763ZM77.1492 32H75.6436L63.0197 0H64.506L77.1492 32ZM61.5141 0L74.1573 32H72.671L60.0278 0H61.5141ZM58.5222 0L71.1654 32H69.6598L57.0359 0H58.5222Z" fill="url(#paint1_linear_0_40)"/>
</g>
<path id="Vector 5" d="M1.59825 0H0L8.52402 32H10.1223L1.59825 0Z" fill="url(#paint2_linear_0_40)"/>
<path id="Vector 6" d="M125.402 0H127L114.214 32H112.616L125.402 0Z" fill="url(#paint3_linear_0_40)"/>
<path id="Subtract_2" d="M102.717 32H101.212L90.7727 5.57812V1.76855L101.964 30.126L113.855 0H115.341L102.717 32ZM105.69 32H104.203L116.827 0H118.333L105.69 32ZM108.682 32H107.196L119.839 0H121.325L108.682 32ZM111.674 32H110.188L122.812 0H124.317L111.674 32ZM102.93 25.0439L102.138 26.8213L91.5607 0H93.0471L102.93 25.0439ZM104.416 21.2363L103.683 23.1494L94.552 0H96.0578L104.416 21.2363ZM105.883 17.3721L105.15 19.3232L97.5441 0H99.0305L105.883 17.3721Z" fill="var(--fill-0, #F0E1FF)"/>
</g>
<defs>
<linearGradient id="paint0_linear_0_40" x1="81.2485" y1="0" x2="81.2485" y2="32" gradientUnits="userSpaceOnUse">
<stop stop-color="#BA7EF4"/>
<stop offset="1" stop-color="#F444AC"/>
</linearGradient>
<linearGradient id="paint1_linear_0_40" x1="59.275" y1="0" x2="59.275" y2="32" gradientUnits="userSpaceOnUse">
<stop stop-color="#BA7EF4"/>
<stop offset="1" stop-color="#F444AC"/>
</linearGradient>
<linearGradient id="paint2_linear_0_40" x1="5.06114" y1="0" x2="5.06114" y2="32" gradientUnits="userSpaceOnUse">
<stop stop-color="#BA7EF4"/>
<stop offset="1" stop-color="#F444AC"/>
</linearGradient>
<linearGradient id="paint3_linear_0_40" x1="119.808" y1="0" x2="119.808" y2="32" gradientUnits="userSpaceOnUse">
<stop stop-color="#BA7EF4"/>
<stop offset="1" stop-color="#F444AC"/>
</linearGradient>
</defs>
</svg>
