<svg preserveAspectRatio="none" width="100%" height="100%" overflow="visible" style="display: block;" viewBox="0 0 190.5 48" fill="none" xmlns="http://www.w3.org/2000/svg">
<g id="WAIV Logo">
<path id="Subtract" d="M17.8069 43.8838L29.4172 0H31.5891L18.8782 48H16.7063L4.02466 0H6.19653L17.8069 43.8838ZM23.1926 48H21.05L33.761 0H35.8743L23.1926 48ZM27.5061 48H25.3635L38.0461 0H40.1887L27.5061 48ZM44.5315 0.0576172L50.177 19.5361L55.3606 0H57.5315L44.8206 48H42.6497L36.9749 28.5508L31.8499 48H29.678L42.3596 0.0576172L42.3313 0H44.5315V0.0576172ZM49.135 48H46.9924L59.7034 0H61.8167L49.135 48ZM53.7776 46.7549L53.2639 48H51.3069L63.9885 0H66.1311L53.7776 46.7549ZM38.0745 24.4639L43.6917 44.0576L44.7922 39.9131L39.1458 20.377L38.0745 24.4639ZM19.2551 33.2461L18.2698 37.3623L8.36841 0H10.511L19.2551 33.2461ZM40.217 16.29L45.8635 35.8262L46.9631 31.7393L41.3176 12.1738L40.217 16.29ZM65.8333 17.5645L59.8049 32.1602L68.303 0H70.4739L65.8333 17.5645ZM21.426 25.2178L20.3547 29.2178L12.6819 0H14.7961L21.426 25.2178ZM42.3596 8.17383L48.0344 27.71L49.1057 23.5938L43.4895 4L42.3596 8.17383ZM23.5979 16.8984L22.4973 20.9561L16.967 0H19.1389L23.5979 16.8984Z" fill="var(--fill-0, #F0E1FF)"/>
<g id="Group 6">
<path id="Vector" d="M127.084 0H129.169V48H127.084V0ZM122.915 0H124.999V48H122.915V0ZM118.745 0H120.83V48H118.745V0ZM114.576 0H116.661V48H114.576V0Z" fill="url(#paint0_linear_0_4)"/>
<path id="Vector_2" d="M84.5406 33.913L85.3802 31.8261H92.5029L93.3425 33.913H84.5406ZM82.9191 38.087L83.7299 36H94.1243L95.0219 38.087H82.9191ZM81.2977 42.2609L82.1084 40.1739H95.7747L96.6433 42.2609H81.2977ZM64.3597 48H62.1013L81.0661 0H83.3245L102.26 48H100.031L82.1953 2.81159L64.3597 48ZM82.4559 7.76812L83.643 10.4348L68.8186 48H66.5892L82.4559 7.76812ZM84.7722 13.2754L85.8724 16.1449L73.3354 48H71.077L84.7722 13.2754ZM86.9727 19.0145L88.0729 21.942L77.7943 48H75.5649L86.9727 19.0145ZM115.724 48H113.465L94.5296 0H96.7591L115.724 48ZM92.2712 0L111.236 48H109.007L90.0418 0H92.2712ZM87.7834 0L106.748 48H104.49L85.554 0H87.7834Z" fill="url(#paint1_linear_0_4)"/>
</g>
<path id="Vector 5" d="M2.39738 0H0L12.786 48H15.1834L2.39738 0Z" fill="url(#paint2_linear_0_4)"/>
<path id="Vector 6" d="M188.103 0H190.5L171.321 48H168.924L188.103 0Z" fill="url(#paint3_linear_0_4)"/>
<path id="Subtract_2" d="M154.076 48H151.817L136.159 8.36816V2.6543L152.947 45.1885L170.782 0H173.011L154.076 48ZM158.535 48H156.305L175.241 0H177.5L158.535 48ZM163.023 48H160.793L179.757 0H181.987L163.023 48ZM167.51 48H165.281L184.216 0H186.475L167.51 48ZM154.394 37.5654L153.208 40.2314L137.34 0H139.57L154.394 37.5654ZM156.624 31.8555L155.523 34.7246L141.829 0H144.086L156.624 31.8555ZM158.824 26.0576L157.724 28.9854L146.316 0H148.545L158.824 26.0576Z" fill="var(--fill-0, #F0E1FF)"/>
</g>
<defs>
<linearGradient id="paint0_linear_0_4" x1="121.872" y1="0" x2="121.872" y2="48" gradientUnits="userSpaceOnUse">
<stop stop-color="#BA7EF4"/>
<stop offset="1" stop-color="#F444AC"/>
</linearGradient>
<linearGradient id="paint1_linear_0_4" x1="88.9126" y1="0" x2="88.9126" y2="48" gradientUnits="userSpaceOnUse">
<stop stop-color="#BA7EF4"/>
<stop offset="1" stop-color="#F444AC"/>
</linearGradient>
<linearGradient id="paint2_linear_0_4" x1="7.59171" y1="0" x2="7.59171" y2="48" gradientUnits="userSpaceOnUse">
<stop stop-color="#BA7EF4"/>
<stop offset="1" stop-color="#F444AC"/>
</linearGradient>
<linearGradient id="paint3_linear_0_4" x1="179.712" y1="0" x2="179.712" y2="48" gradientUnits="userSpaceOnUse">
<stop stop-color="#BA7EF4"/>
<stop offset="1" stop-color="#F444AC"/>
</linearGradient>
</defs>
</svg>
